<svg width="200" height="200" viewBox="0 0 200 200" fill="none" xmlns="http://www.w3.org/2000/svg">
<rect width="200" height="200" fill="#111111"/>
<path d="M140.703 126.453H59.2892C56.4337 126.453 54.9376 129.848 56.8712 131.953L66.4337 142.383C67.961 144.051 70.1212 145.001 72.379 145.001H118.938C120.372 145.001 121.778 144.618 123.012 143.895L142.364 132.567C145.255 130.876 144.056 126.45 140.704 126.45L140.703 126.453Z" fill="#F1F1F1"/>
<path d="M63.7692 118.207H100.386C101.453 118.207 102.32 117.344 102.32 116.274L102.316 58.9108C102.316 54.9889 97.1792 53.5163 95.1011 56.8405L60.4561 112.235C58.8311 114.837 60.6982 118.212 63.7647 118.212L63.7692 118.207Z" fill="#F1F1F1"/>
<path d="M113.609 118.207H134.515C135.55 118.207 136.289 117.2 135.957 116.219C134.05 110.598 127.566 94.5201 113.762 87.2971C112.773 86.7814 111.59 87.551 111.59 88.6682V116.188C111.59 117.301 112.492 118.207 113.609 118.207Z" fill="#F1F1F1"/>
</svg>
