<svg width="200" height="200" viewBox="0 0 200 200" fill="none" xmlns="http://www.w3.org/2000/svg">
<g clip-path="url(#clip0_257_217)">
<circle cx="100" cy="100" r="100" fill="#111111"/>
<path d="M140.703 124.453H59.2892C56.4337 124.453 54.9376 127.848 56.8712 129.953L66.4337 140.383C67.961 142.051 70.1212 143.001 72.379 143.001H118.938C120.372 143.001 121.778 142.618 123.012 141.895L142.364 130.567C145.255 128.876 144.056 124.45 140.704 124.45L140.703 124.453Z" fill="#F1F1F1"/>
<path d="M63.7692 116.207H100.386C101.453 116.207 102.32 115.344 102.32 114.274L102.316 56.9108C102.316 52.9889 97.1792 51.5163 95.1011 54.8405L60.4561 110.235C58.8311 112.837 60.6982 116.212 63.7647 116.212L63.7692 116.207Z" fill="#F1F1F1"/>
<path d="M113.609 116.207H134.515C135.55 116.207 136.289 115.2 135.957 114.219C134.05 108.598 127.566 92.5201 113.762 85.2971C112.773 84.7814 111.59 85.551 111.59 86.6682V114.188C111.59 115.301 112.492 116.207 113.609 116.207Z" fill="#F1F1F1"/>
</g>
<defs>
<clipPath id="clip0_257_217">
<rect width="200" height="200" fill="white"/>
</clipPath>
</defs>
</svg>
