<svg width="550" height="200" viewBox="0 0 550 200" fill="none" xmlns="http://www.w3.org/2000/svg">
<path d="M172.632 125V80.2H182.36L198.68 106.76L191.704 106.696L208.216 80.2H217.56V125H207V111.048C207 107.208 207.085 103.752 207.256 100.68C207.469 97.608 207.811 94.5573 208.28 91.528L209.496 94.856L197.08 114.12H192.856L180.696 94.984L181.912 91.528C182.381 94.3867 182.701 97.3307 182.872 100.36C183.085 103.347 183.192 106.909 183.192 111.048V125H172.632ZM240.276 125.576C237.417 125.576 234.857 124.829 232.595 123.336C230.377 121.8 228.606 119.709 227.284 117.064C225.961 114.376 225.299 111.347 225.299 107.976C225.299 104.52 225.961 101.469 227.284 98.824C228.606 96.1787 230.42 94.1093 232.724 92.616C235.028 91.08 237.652 90.312 240.596 90.312C242.217 90.312 243.689 90.5467 245.012 91.016C246.377 91.4853 247.572 92.1467 248.596 93C249.62 93.8107 250.494 94.7707 251.22 95.88C251.945 96.9467 252.478 98.0987 252.82 99.336L250.708 99.08V91.016H260.884V125H250.516V116.808L252.82 116.744C252.478 117.939 251.924 119.069 251.156 120.136C250.388 121.203 249.449 122.141 248.34 122.952C247.23 123.763 245.993 124.403 244.628 124.872C243.262 125.341 241.812 125.576 240.276 125.576ZM243.092 116.936C244.67 116.936 246.036 116.573 247.188 115.848C248.34 115.123 249.236 114.099 249.876 112.776C250.516 111.411 250.836 109.811 250.836 107.976C250.836 106.141 250.516 104.563 249.876 103.24C249.236 101.875 248.34 100.829 247.188 100.104C246.036 99.336 244.67 98.952 243.092 98.952C241.556 98.952 240.212 99.336 239.06 100.104C237.95 100.829 237.076 101.875 236.436 103.24C235.796 104.563 235.476 106.141 235.476 107.976C235.476 109.811 235.796 111.411 236.436 112.776C237.076 114.099 237.95 115.123 239.06 115.848C240.212 116.573 241.556 116.936 243.092 116.936ZM285.471 139.72C282.698 139.72 279.924 139.315 277.151 138.504C274.42 137.693 272.202 136.648 270.495 135.368L274.079 128.2C274.975 128.797 275.956 129.309 277.023 129.736C278.132 130.205 279.284 130.568 280.479 130.824C281.674 131.08 282.89 131.208 284.127 131.208C286.303 131.208 288.074 130.888 289.439 130.248C290.804 129.608 291.828 128.627 292.511 127.304C293.194 126.024 293.535 124.403 293.535 122.44V116.744L295.519 117.064C295.22 118.472 294.474 119.752 293.279 120.904C292.127 122.056 290.698 122.995 288.991 123.72C287.284 124.403 285.471 124.744 283.551 124.744C280.479 124.744 277.727 124.04 275.295 122.632C272.906 121.181 271.007 119.197 269.599 116.68C268.234 114.12 267.551 111.176 267.551 107.848C267.551 104.435 268.234 101.427 269.599 98.824C270.964 96.1787 272.842 94.1093 275.231 92.616C277.62 91.08 280.308 90.312 283.295 90.312C284.575 90.312 285.791 90.4613 286.943 90.76C288.138 91.0587 289.226 91.464 290.207 91.976C291.231 92.4453 292.127 93.0213 292.895 93.704C293.706 94.344 294.346 95.048 294.815 95.816C295.327 96.584 295.668 97.3733 295.839 98.184L293.727 98.696L294.111 91.016H303.839V122.248C303.839 125.021 303.412 127.475 302.559 129.608C301.748 131.784 300.532 133.619 298.911 135.112C297.332 136.648 295.412 137.8 293.151 138.568C290.89 139.336 288.33 139.72 285.471 139.72ZM285.727 116.808C287.391 116.808 288.82 116.445 290.015 115.72C291.252 114.952 292.191 113.907 292.831 112.584C293.514 111.261 293.855 109.704 293.855 107.912C293.855 106.12 293.514 104.563 292.831 103.24C292.191 101.875 291.252 100.829 290.015 100.104C288.82 99.336 287.391 98.952 285.727 98.952C284.106 98.952 282.698 99.336 281.503 100.104C280.308 100.829 279.37 101.875 278.687 103.24C278.047 104.563 277.727 106.12 277.727 107.912C277.727 109.704 278.047 111.261 278.687 112.584C279.37 113.907 280.308 114.952 281.503 115.72C282.698 116.445 284.106 116.808 285.727 116.808ZM313.308 125V91.016H323.548V125H313.308ZM318.428 84.296C316.508 84.296 314.993 83.848 313.884 82.952C312.817 82.0133 312.284 80.6907 312.284 78.984C312.284 77.448 312.838 76.1893 313.948 75.208C315.057 74.2267 316.55 73.736 318.428 73.736C320.348 73.736 321.841 74.2053 322.908 75.144C323.974 76.04 324.508 77.32 324.508 78.984C324.508 80.5627 323.953 81.8427 322.844 82.824C321.777 83.8053 320.305 84.296 318.428 84.296ZM348.081 125.64C344.796 125.64 341.852 124.872 339.249 123.336C336.646 121.8 334.577 119.709 333.041 117.064C331.548 114.376 330.801 111.347 330.801 107.976C330.801 104.605 331.548 101.597 333.041 98.952C334.577 96.264 336.646 94.152 339.249 92.616C341.852 91.08 344.796 90.312 348.081 90.312C351.11 90.312 353.884 90.8453 356.401 91.912C358.961 92.9787 360.988 94.472 362.481 96.392L356.913 103.048C356.316 102.365 355.612 101.725 354.801 101.128C353.99 100.531 353.094 100.061 352.113 99.72C351.132 99.3787 350.108 99.208 349.041 99.208C347.42 99.208 345.99 99.592 344.753 100.36C343.516 101.085 342.556 102.109 341.873 103.432C341.19 104.755 340.849 106.269 340.849 107.976C340.849 109.597 341.19 111.069 341.873 112.392C342.598 113.715 343.58 114.76 344.817 115.528C346.054 116.296 347.462 116.68 349.041 116.68C350.15 116.68 351.174 116.552 352.113 116.296C353.052 115.997 353.905 115.571 354.673 115.016C355.484 114.461 356.23 113.779 356.913 112.968L362.417 119.688C360.966 121.523 358.94 122.973 356.337 124.04C353.777 125.107 351.025 125.64 348.081 125.64ZM383.98 125.64C381.036 125.64 378.369 125.299 375.98 124.616C373.633 123.891 371.543 122.867 369.708 121.544C367.873 120.179 366.231 118.579 364.78 116.744L371.372 109.256C373.505 112.115 375.639 114.035 377.772 115.016C379.948 115.997 382.188 116.488 384.492 116.488C385.644 116.488 386.689 116.339 387.628 116.04C388.567 115.741 389.292 115.315 389.804 114.76C390.316 114.163 390.572 113.437 390.572 112.584C390.572 111.944 390.401 111.368 390.06 110.856C389.761 110.344 389.335 109.896 388.78 109.512C388.225 109.128 387.564 108.787 386.796 108.488C386.028 108.147 385.217 107.869 384.364 107.656C383.511 107.4 382.636 107.187 381.74 107.016C379.265 106.461 377.111 105.779 375.276 104.968C373.441 104.157 371.905 103.176 370.668 102.024C369.473 100.829 368.577 99.4853 367.98 97.992C367.383 96.456 367.084 94.7493 367.084 92.872C367.084 90.8667 367.532 89.032 368.428 87.368C369.367 85.6613 370.604 84.2107 372.14 83.016C373.719 81.7787 375.532 80.84 377.58 80.2C379.628 79.5173 381.761 79.176 383.98 79.176C386.924 79.176 389.441 79.496 391.532 80.136C393.665 80.7333 395.479 81.608 396.972 82.76C398.508 83.912 399.809 85.2987 400.876 86.92L394.156 93.384C393.26 92.2747 392.279 91.3573 391.212 90.632C390.188 89.9067 389.079 89.352 387.884 88.968C386.732 88.584 385.537 88.392 384.3 88.392C383.02 88.392 381.911 88.5627 380.972 88.904C380.076 89.2027 379.372 89.6507 378.86 90.248C378.348 90.8027 378.092 91.4853 378.092 92.296C378.092 93.0213 378.305 93.64 378.732 94.152C379.159 94.664 379.735 95.1333 380.46 95.56C381.185 95.944 382.017 96.2853 382.956 96.584C383.895 96.84 384.876 97.0533 385.9 97.224C388.247 97.6933 390.359 98.312 392.236 99.08C394.156 99.848 395.799 100.787 397.164 101.896C398.572 103.005 399.639 104.328 400.364 105.864C401.132 107.357 401.516 109.107 401.516 111.112C401.516 114.227 400.748 116.872 399.212 119.048C397.719 121.181 395.649 122.824 393.004 123.976C390.401 125.085 387.393 125.64 383.98 125.64ZM408.607 125V77.64H418.655V97.928L416.607 98.696C417.076 97.16 417.908 95.7733 419.103 94.536C420.34 93.256 421.812 92.232 423.519 91.464C425.225 90.696 427.017 90.312 428.895 90.312C431.455 90.312 433.609 90.8453 435.359 91.912C437.108 92.936 438.431 94.4933 439.326 96.584C440.223 98.632 440.671 101.149 440.671 104.136V125H430.367V104.968C430.367 103.603 430.175 102.472 429.791 101.576C429.407 100.68 428.809 100.019 427.999 99.592C427.231 99.1227 426.271 98.9093 425.119 98.952C424.223 98.952 423.391 99.1013 422.623 99.4C421.855 99.656 421.193 100.061 420.639 100.616C420.084 101.128 419.636 101.725 419.295 102.408C418.996 103.091 418.847 103.837 418.847 104.648V125H413.791C412.596 125 411.572 125 410.719 125C409.865 125 409.161 125 408.607 125ZM449.808 125V91.016H460.048V125H449.808ZM454.928 84.296C453.008 84.296 451.493 83.848 450.384 82.952C449.317 82.0133 448.784 80.6907 448.784 78.984C448.784 77.448 449.338 76.1893 450.448 75.208C451.557 74.2267 453.05 73.736 454.928 73.736C456.848 73.736 458.341 74.2053 459.408 75.144C460.474 76.04 461.008 77.32 461.008 78.984C461.008 80.5627 460.453 81.8427 459.344 82.824C458.277 83.8053 456.805 84.296 454.928 84.296ZM469.669 139.08V91.016H479.397L479.781 98.632L477.861 98.056C478.16 96.648 478.885 95.368 480.037 94.216C481.189 93.064 482.64 92.1467 484.389 91.464C486.181 90.7387 488.058 90.376 490.021 90.376C492.922 90.376 495.504 91.144 497.765 92.68C500.026 94.1733 501.797 96.2427 503.077 98.888C504.4 101.491 505.061 104.52 505.061 107.976C505.061 111.389 504.4 114.419 503.077 117.064C501.797 119.709 500.005 121.8 497.701 123.336C495.44 124.829 492.837 125.576 489.893 125.576C487.973 125.576 486.138 125.213 484.389 124.488C482.64 123.763 481.168 122.781 479.973 121.544C478.778 120.307 477.989 118.963 477.605 117.512L479.973 116.616V139.08H469.669ZM487.397 116.936C488.933 116.936 490.277 116.573 491.429 115.848C492.581 115.08 493.477 114.035 494.117 112.712C494.757 111.389 495.077 109.811 495.077 107.976C495.077 106.184 494.757 104.627 494.117 103.304C493.477 101.939 492.581 100.893 491.429 100.168C490.32 99.4 488.976 99.016 487.397 99.016C485.818 99.016 484.453 99.3787 483.301 100.104C482.149 100.829 481.253 101.875 480.613 103.24C479.973 104.605 479.653 106.184 479.653 107.976C479.653 109.811 479.973 111.389 480.613 112.712C481.253 114.035 482.149 115.08 483.301 115.848C484.453 116.573 485.818 116.936 487.397 116.936Z" fill="white"/>
<path d="M127.703 126.453H46.2892C43.4337 126.453 41.9376 129.848 43.8712 131.953L53.4337 142.383C54.961 144.051 57.1212 145.001 59.379 145.001H105.938C107.372 145.001 108.778 144.618 110.012 143.895L129.364 132.567C132.255 130.876 131.056 126.45 127.704 126.45L127.703 126.453Z" fill="#F1F1F1"/>
<path d="M50.7692 118.207H87.3862C88.4526 118.207 89.3198 117.344 89.3198 116.274L89.3159 58.9108C89.3159 54.9889 84.1792 53.5163 82.1011 56.8405L47.4561 112.235C45.8311 114.837 47.6982 118.212 50.7647 118.212L50.7692 118.207Z" fill="#F1F1F1"/>
<path d="M100.609 118.207H121.515C122.55 118.207 123.289 117.2 122.957 116.219C121.05 110.598 114.566 94.5201 100.762 87.2971C99.7733 86.7814 98.5897 87.551 98.5897 88.6682V116.188C98.5897 117.301 99.492 118.207 100.609 118.207Z" fill="#F1F1F1"/>
</svg>
