<svg width="88" height="90" viewBox="0 0 88 90" fill="none" xmlns="http://www.w3.org/2000/svg">
<path d="M84.7032 71.4534H3.28915C0.433652 71.4534 -1.06245 74.8479 0.871152 76.9534L10.4337 87.3834C11.961 89.0514 14.1212 90.0006 16.379 90.0006H62.938C64.3716 90.0006 65.7778 89.6178 67.0122 88.8951L86.3642 77.5671C89.2548 75.8757 88.0556 71.4499 84.704 71.4499L84.7032 71.4534Z" fill="#F1F1F1"/>
<path d="M7.76917 63.2074H44.3862C45.4526 63.2074 46.3198 62.3441 46.3198 61.2738L46.3159 3.91079C46.3159 -0.0111139 41.1792 -1.48371 39.1011 1.84049L4.45606 57.2355C2.83106 59.8371 4.69825 63.2121 7.76466 63.2121L7.76917 63.2074Z" fill="#F1F1F1"/>
<path d="M57.6092 63.2074H78.5152C79.5504 63.2074 80.2886 62.1996 79.9566 61.2191C78.0504 55.598 71.566 39.5201 57.7616 32.2971C56.7733 31.7814 55.5897 32.551 55.5897 33.6682V61.1882C55.5897 62.3015 56.492 63.2074 57.6092 63.2074Z" fill="#F1F1F1"/>
</svg>
